; Drill file
; Format: 3.3 (000.000)
M48
METRIC
T01C0.8
T02C1
T03C1.7
T04C4
%
G05
G90
T01
X032920Y017920
X036120Y017920
X038320Y017920
X040520Y017920
X040520Y023000
X038320Y023000
X036120Y023000
X032920Y023000
X046420Y023000
X049620Y023000
X051820Y023000
X054020Y023000
X054020Y017920
X051820Y017920
X049620Y017920
X046420Y017920
X070000Y013500
X073000Y013500
X078500Y013500
X084000Y013500
X087000Y013500
X091000Y013500
X094000Y013500
X096000Y013500
X098000Y013500
X101000Y013500
X100000Y019500
X097000Y019500
X096500Y024500
X096500Y027500
X100500Y027500
X100500Y024500
X109500Y024500
X109500Y027500
X112000Y028500
X115000Y028500
X115000Y019500
X112000Y019500
X101000Y004500
X098000Y004500
X094000Y004500
X091000Y004500
X087000Y004500
X084000Y004500
X073000Y004500
X070000Y004500
X075420Y020400
X075420Y022600
X075420Y024800
X075420Y028000
X080500Y028000
X080500Y024800
X080500Y022600
X080500Y020400
X087500Y024500
X087500Y027500
X088500Y017500
X091500Y017500
T02
X005100Y011260
X007640Y011260
X010180Y011260
X012720Y011260
X015260Y011260
X017800Y011260
X020340Y011260
X022880Y011260
X025420Y011260
X032880Y037260
X035420Y037260
X037960Y037260
X040500Y037260
X053580Y036000
X053580Y045000
X053580Y047000
X053580Y056000
X057000Y059860
X057000Y062400
X057000Y064940
X057000Y067480
X057000Y070020
X057000Y077640
X057000Y080180
X057000Y082720
X065300Y091720
X067840Y091720
X070380Y091720
X072920Y091720
X075460Y091720
X078000Y091720
X080000Y082720
X083000Y075200
X080000Y070020
X080000Y067480
X080000Y064940
X080000Y062400
X080000Y059860
X080000Y057320
X080000Y054780
X080000Y052240
X080000Y049700
X085000Y049700
X085000Y052240
X085000Y054780
X085000Y057320
X085000Y059860
X085000Y062400
X085000Y064940
X085000Y067480
X096000Y074420
X096000Y076960
X096000Y079500
X096000Y092420
X096000Y094960
X096000Y097500
X083000Y043700
X079500Y037000
X100000Y031000
X102500Y031000
X105000Y031000
X107000Y020500
X107000Y018000
X045580Y052500
X043040Y052500
X040500Y052500
X041920Y055980
X041920Y064980
X035420Y067480
X032880Y060000
X030340Y060000
X027800Y060000
X025260Y060000
X030340Y052500
X032880Y052500
X017640Y037260
X015100Y037260
X012560Y067480
X010020Y067480
X025260Y082720
X027800Y082720
X035420Y082720
X037960Y082720
X040500Y082720
T03
X112500Y006000
X112500Y010000
X091000Y076960
X091000Y094960
T04
X013000Y004500
X078500Y004500
X111000Y035000
X107000Y101500
X013000Y101500
M30
