; Drill file
; Format: 3.3 (000.000)
M48
METRIC
T01C1
T02C1.4
T03C3
T04C4
T05C7.8
%
G05
G90
T01
X019180Y009780
X025180Y007280
X029180Y009780
X035180Y007280
X035180Y017280
X045180Y017280
X050180Y026780
X050180Y033780
X060180Y033780
X064180Y030280
X060180Y026780
X070180Y021780
X072680Y021780
X075180Y021780
X077680Y021780
X080180Y021780
X082680Y021780
X085180Y021780
X087680Y021780
X074180Y030280
T02
X019180Y017030
X019180Y022030
X014680Y026530
X009680Y026530
X019180Y030280
X019180Y035280
X014680Y039030
X009680Y039030
X022930Y039780
X027930Y039780
X031680Y035280
X031680Y030280
X036180Y026530
X041180Y026530
X031680Y022030
X031680Y017030
X036180Y039030
X041180Y039030
X027930Y052280
X022930Y052280
X069180Y046780
X074180Y046780
X074180Y034280
X069180Y034280
T03
X051680Y015780
T04
X008680Y008780
X008680Y051280
X084680Y051280
X084680Y008780
T05
X059680Y015780
M30
