%FSLAX32Y32*%
%MOMM*%
%LNKUPFERSEITE1*%
G71*
G01*
%ADD10C, 0.20*%
%ADD11C, 2.70*%
%ADD12C, 0.80*%
%ADD13C, 2.00*%
%ADD14C, 5.00*%
%ADD15C, 4.00*%
%ADD16C, 9.00*%
%LPD*%
G54D10*
X0Y0D02*
X9400Y0D01*
X9400Y6000D01*
X0Y6000D01*
X0Y0D01*
X2293Y5228D02*
G54D11*
D03*
X2793Y5228D02*
G54D11*
D03*
X2293Y3978D02*
G54D11*
D03*
X2793Y3978D02*
G54D11*
D03*
X1918Y3528D02*
G54D11*
D03*
X3168Y3528D02*
G54D11*
D03*
X3168Y3028D02*
G54D11*
D03*
X1918Y3028D02*
G54D11*
D03*
X1918Y2203D02*
G54D11*
D03*
X3168Y2203D02*
G54D11*
D03*
X1918Y1703D02*
G54D11*
D03*
X3168Y1703D02*
G54D11*
D03*
X1468Y3903D02*
G54D11*
D03*
X968Y3903D02*
G54D11*
D03*
X968Y2653D02*
G54D11*
D03*
X1468Y2653D02*
G54D11*
D03*
X3618Y3903D02*
G54D11*
D03*
X4118Y3903D02*
G54D11*
D03*
X3618Y2653D02*
G54D11*
D03*
X4118Y2653D02*
G54D11*
D03*
X6918Y4678D02*
G54D11*
D03*
X7418Y4678D02*
G54D11*
D03*
X6918Y3428D02*
G54D11*
D03*
X7418Y3428D02*
G54D11*
D03*
G54D12*
X3268Y3028D02*
X3618Y3028D01*
X3618Y2778D01*
G54D12*
X3618Y2528D02*
X3618Y2178D01*
X3268Y2178D01*
G54D12*
X2768Y3878D02*
X2768Y2228D01*
X2818Y2178D01*
X3018Y2178D01*
X3068Y2228D01*
G54D12*
X1468Y2778D02*
X1468Y3278D01*
X2718Y3278D01*
G54D12*
X2768Y4078D02*
X2768Y4178D01*
X4618Y4178D01*
X4618Y3828D01*
X6918Y3828D01*
X6918Y3528D01*
X1918Y978D02*
G54D13*
D03*
X2918Y978D02*
G54D13*
D03*
X3518Y728D02*
G54D13*
D03*
X2518Y728D02*
G54D13*
D03*
X3518Y1728D02*
G54D13*
D03*
X4518Y1728D02*
G54D13*
D03*
X7018Y2178D02*
G54D13*
D03*
X7268Y2178D02*
G54D13*
D03*
X7518Y2178D02*
G54D13*
D03*
X7768Y2178D02*
G54D13*
D03*
X8018Y2178D02*
G54D13*
D03*
X8268Y2178D02*
G54D13*
D03*
X8518Y2178D02*
G54D13*
D03*
X8768Y2178D02*
G54D13*
D03*
X5018Y2678D02*
G54D13*
D03*
X6018Y2678D02*
G54D13*
D03*
X6018Y3378D02*
G54D13*
D03*
X5018Y3378D02*
G54D13*
D03*
X7418Y3028D02*
G54D13*
D03*
X6418Y3028D02*
G54D13*
D03*
G54D12*
X7418Y3328D02*
X7418Y3128D01*
G54D12*
X7768Y2278D02*
X7768Y3828D01*
X6918Y3828D01*
G54D12*
X8018Y2278D02*
X8018Y4028D01*
X4868Y4028D01*
X4868Y4428D01*
X1968Y4428D01*
X1968Y3728D01*
X1918Y3678D01*
G54D12*
X8268Y2278D02*
X8268Y4278D01*
X7418Y4278D01*
X7418Y4578D01*
G54D12*
X8518Y2278D02*
X8518Y4528D01*
X7768Y4528D01*
X7768Y4928D01*
X7768Y4978D01*
X6568Y4978D01*
X6568Y4728D01*
X6568Y4678D01*
X1768Y4678D01*
X1718Y4678D01*
X1718Y4228D01*
X1218Y4228D01*
X1218Y2328D01*
X1618Y2328D01*
X1618Y1728D01*
X1818Y1728D01*
G54D12*
X8768Y2278D02*
X8768Y4728D01*
X7968Y4728D01*
X7968Y5178D01*
X6368Y5178D01*
X6318Y5178D01*
X6318Y4928D01*
X1518Y4928D01*
X1468Y4928D01*
X1468Y4478D01*
X968Y4478D01*
X968Y4028D01*
G54D12*
X2168Y5228D02*
X1268Y5228D01*
X1218Y5228D01*
X1218Y4728D01*
G54D12*
X968Y2528D02*
X968Y2128D01*
X968Y2078D01*
X1368Y2078D01*
X1368Y1378D01*
X1868Y1378D01*
X1918Y1378D01*
X1918Y1078D01*
G54D12*
X1218Y4728D02*
X668Y4728D01*
X668Y1828D01*
X1068Y1828D01*
X1168Y1128D01*
X1618Y1078D01*
X1618Y728D01*
X2418Y728D01*
G54D12*
X3618Y728D02*
X3868Y728D01*
X3868Y3028D01*
X6318Y3028D01*
G54D12*
X6018Y2778D02*
X6018Y3278D01*
G54D12*
X3268Y3528D02*
X4818Y3528D01*
X4918Y3428D01*
G54D12*
X6418Y2928D02*
X6418Y2728D01*
X7518Y2728D01*
X7518Y2278D01*
G54D12*
X4318Y1728D02*
X3868Y1728D01*
G54D12*
X3318Y1728D02*
X3268Y1728D01*
G54D12*
X3018Y978D02*
X3868Y978D01*
G54D12*
X4218Y2678D02*
X4918Y2678D01*
G54D12*
X5018Y2578D02*
X5018Y2428D01*
X7268Y2428D01*
X7268Y2278D01*
G54D12*
X2518Y628D02*
X2518Y428D01*
X4218Y428D01*
X4218Y1378D01*
X4768Y1378D01*
X4768Y2178D01*
X6918Y2178D01*
X868Y5128D02*
G54D14*
D03*
X8468Y5128D02*
G54D14*
D03*
X868Y878D02*
G54D14*
D03*
X8468Y878D02*
G54D14*
D03*
G54D12*
X3318Y1728D02*
X3418Y1728D01*
G54D12*
X4318Y1728D02*
X4418Y1728D01*
X5168Y1578D02*
G54D15*
D03*
X5968Y1578D02*
G54D16*
D03*
M02*
